<svg xmlns="http://www.w3.org/2000/svg" width="12" height="30" viewBox="0 0 12 30">
    <path fill="#FFCD00" fill-rule="nonzero" d="M8.612 7.648c-.176-.477-.323-2.676-.367-5.145 0-.01.01-.035.048-.035.196-.011.304-.167.304-.365V.373A.375.375 0 0 0 8.223 0H4.59a.375.375 0 0 0-.374.374v1.729c0 .198.1.352.295.363.063 0 .057.045.057.063-.044 2.493-.19 4.642-.367 5.119C3.16 10.45.846 10.208.846 13.573v12.03c0 4.63 2.329 4.397 5.56 4.376 3.23.021 5.56.254 5.56-4.375V13.572c0-3.364-2.315-3.121-3.354-5.924zm1.205 11.958c-.546.83-2.898 2.806-3.407 2.806-.5 0-2.872-1.983-3.415-2.806-.271-.412-.464-.867-.432-1.465.057-1.059.922-1.933 1.982-1.933 1.09 0 1.724 1.163 1.861 1.163.157 0 .818-1.163 1.861-1.163 1.06 0 1.926.874 1.982 1.933.032.598-.16 1.05-.432 1.465z"/>
</svg>
