<svg xmlns="http://www.w3.org/2000/svg" width="159" height="147" viewBox="0 0 159 147">
    <g fill="none" fill-rule="evenodd">
        <path fill="#ECC936" d="M24.313 29.999L74.176 1.194a8.898 8.898 0 0 1 8.904 0l49.865 28.805a8.91 8.91 0 0 1 4.452 7.715v71.312a8.91 8.91 0 0 1-4.452 7.716L83.08 145.547a8.898 8.898 0 0 1-8.904 0l-49.863-28.805a8.91 8.91 0 0 1-4.453-7.716V37.714a8.91 8.91 0 0 1 4.453-7.715"/>
        <path fill="#0A0B09" d="M34.82 49.886l.644-.794.124-.169c1.76-2.335 2.278-6.485 2.64-9.355l2.36-19.081c.372-2.937 1.288-5.34 2.036-5.34h4.946c.75 0 1.666 2.403 2.037 5.34l2.361 19.081c.35 2.778.845 6.757 2.472 9.127.093.137.19.27.291.397l.645.794c1.863 2.3 3.388 6.604 3.388 9.565v45.17c0 2.961-2.421 5.383-5.38 5.383H36.81c-2.958 0-5.38-2.422-5.38-5.382V59.45c0-2.961 1.526-7.264 3.39-9.565"/>
        <path fill="#0A0B09" d="M42.796 16.03c-.333.388-1.007 1.998-1.331 4.568l-2.36 19.08c-.39 3.09-.918 7.266-2.812 9.776-.064.091-.103.144-.142.192l-.644.797c-1.73 2.135-3.193 6.26-3.193 9.008v45.17c0 2.482 2.018 4.5 4.497 4.5h16.573a4.503 4.503 0 0 0 4.497-4.5v-45.17c0-2.748-1.461-6.873-3.191-9.008l-.644-.795a7.488 7.488 0 0 1-.334-.452c-1.742-2.539-2.247-6.553-2.616-9.484L48.73 20.595c-.323-2.568-.997-4.177-1.331-4.566h-4.603m10.588 94.858H36.81a6.27 6.27 0 0 1-6.262-6.265V59.45c0-3.141 1.609-7.68 3.586-10.12l.742-.932c1.617-2.144 2.13-6.21 2.47-8.9l2.366-19.12c.181-1.437.927-6.116 2.911-6.116h4.946c2.038 0 2.784 5.092 2.912 6.113l2.362 19.084c.33 2.628.824 6.55 2.323 8.734.08.117.163.233.25.341l.644.795c1.977 2.44 3.585 6.98 3.585 10.12v45.172a6.27 6.27 0 0 1-6.262 6.265"/>
        <path fill="#0A0B09" d="M50.29 18.859c0 .82-.662 1.485-1.482 1.485h-7.421c-.82 0-1.484-.665-1.484-1.485 0-.447.2-.843.511-1.114a1.477 1.477 0 0 1-.51-1.114c0-.82.662-1.485 1.483-1.485h7.42c.821 0 1.484.665 1.484 1.485 0 .446-.2.842-.51 1.114.31.271.51.667.51 1.114"/>
        <path fill="#0A0B09" d="M41.387 16.03c-.332 0-.6.27-.6.6a.6.6 0 0 0 .21.451.882.882 0 0 1-.002 1.33.592.592 0 0 0-.209.448c0 .332.27.602.6.602h7.422c.331 0 .6-.27.6-.602a.59.59 0 0 0-.207-.447.882.882 0 0 1-.002-1.33.6.6 0 0 0 .21-.451.601.601 0 0 0-.6-.602h-7.422m7.421 5.198h-7.421a2.37 2.37 0 0 1-2.366-2.368c0-.393.098-.775.282-1.115a2.346 2.346 0 0 1-.282-1.113 2.37 2.37 0 0 1 2.366-2.368h7.421a2.369 2.369 0 0 1 2.366 2.368c0 .392-.099.774-.282 1.113.183.34.282.722.282 1.115a2.37 2.37 0 0 1-2.366 2.368"/>
        <path fill="#FFFFFE" d="M45.098 44.32c-2.878 0-5.419-1.554-6.975-3.93l.105-.822 1.473-11.91c1.475-1.305 3.35-2.09 5.397-2.09 2.046 0 3.921.785 5.396 2.09l1.474 11.91.104.822c-1.556 2.376-4.096 3.93-6.974 3.93"/>
        <path fill="#0A0B09" d="M39.041 40.17c1.457 2.052 3.7 3.267 6.057 3.267s4.6-1.215 6.057-3.268l-.063-.49-1.432-11.57c-1.329-1.086-2.9-1.659-4.562-1.659-1.663 0-3.233.573-4.563 1.659l-1.494 12.06m6.057 5.035c-3.055 0-5.938-1.618-7.714-4.329a.88.88 0 0 1-.136-.597l.104-.82 1.473-11.908a.882.882 0 0 1 .291-.553c1.684-1.492 3.809-2.313 5.982-2.313 2.174 0 4.298.822 5.981 2.314.161.142.265.34.291.553l1.577 12.726a.88.88 0 0 1-.137.597c-1.775 2.711-4.658 4.33-7.712 4.33"/>
        <path fill="#ECC436" d="M45.098 41.68c.71 0 1.399-.142 2.042-.41 1.347-.561 2.134-1.978 1.954-3.428l-.835-6.746c-.198-1.6-1.52-2.877-3.13-2.887h-.063c-1.61.009-2.932 1.288-3.13 2.887l-.835 6.747c-.18 1.45.607 2.867 1.955 3.428a5.292 5.292 0 0 0 2.042.408"/>
        <path fill="#0A0B09" d="M45.125 29.092c-1.194.007-2.164.914-2.313 2.112l-.835 6.748c-.132 1.07.451 2.1 1.418 2.503a4.447 4.447 0 0 0 3.406 0c.966-.404 1.55-1.433 1.417-2.504l-.834-6.747c-.15-1.198-1.12-2.105-2.26-2.112m-.026 13.47c-.821 0-1.622-.16-2.381-.476-1.697-.706-2.722-2.497-2.492-4.352l.835-6.748c.257-2.075 1.977-3.648 4.002-3.66h.076c2.02.012 3.741 1.585 3.998 3.66l.834 6.748c.23 1.855-.794 3.645-2.491 4.351a6.145 6.145 0 0 1-2.381.477"/>
        <path fill="#FFFFFE" d="M31.431 91.965h27.333V61.458H31.43z"/>
        <path fill="#0A0B09" d="M32.314 91.081h25.567v-28.74H32.314v28.74zm26.45 1.767H31.43a.883.883 0 0 1-.882-.883V61.458c0-.488.395-.883.882-.883h27.333c.487 0 .882.395.882.883v30.507a.883.883 0 0 1-.882.883z"/>
        <path fill="#ECC436" d="M38.509 89.191h13.177a4.41 4.41 0 0 0 4.41-4.412V68.643a4.41 4.41 0 0 0-4.41-4.412H38.51a4.41 4.41 0 0 0-4.41 4.412V84.78a4.41 4.41 0 0 0 4.41 4.412"/>
        <path fill="#0A0B09" d="M38.067 65.115a3.09 3.09 0 0 0-3.085 3.087v17.019a3.09 3.09 0 0 0 3.085 3.087h14.06a3.09 3.09 0 0 0 3.086-3.087V68.202a3.09 3.09 0 0 0-3.085-3.087h-14.06m14.06 24.96h-14.06a4.858 4.858 0 0 1-4.851-4.854V68.202a4.858 4.858 0 0 1 4.85-4.854h14.06a4.858 4.858 0 0 1 4.851 4.854v17.019a4.858 4.858 0 0 1-4.85 4.854M52.771 109.12h-8.94a5.39 5.39 0 0 1-2.437-4.498V92.848h10.082c.211 5.447.624 10.887 1.295 16.273M52.884 110.004h-6.11a5.336 5.336 0 0 1-2.944-.883h8.941c.037.295.074.589.113.883"/>
        <path fill="#EC9336" d="M51.414 91.081h-10.02v-1.006h9.99l.03 1.006"/>
        <path fill="#0A0B09" d="M51.476 92.848H41.394V91.08h10.02c.019.588.039 1.179.062 1.767M52.122 60.575H41.394v-1.124c0-2.961 1.525-7.264 3.389-9.565l.644-.794.124-.169c.767-1.017.943-2.38.929-3.83 1.867-.302 3.612-1.208 5.003-2.589.233 1.435.55 2.931 1.039 4.287.033 4.59-.162 9.19-.4 13.784m-2.748-34.78a8.88 8.88 0 0 0-4.608-1.104l-.362-3.464h4.364c.044.288.092.574.147.857l.46 3.711"/>
        <path fill="#0A0B09" d="M52.522 46.791c-.488-1.356-.806-2.852-1.039-4.287.316-.313.613-.65.889-1.011.091 1.764.138 3.53.15 5.298m-2.477-20.59a9.4 9.4 0 0 0-.67-.406l-.46-3.71c.116.606.257 1.201.42 1.78.23.808.482 1.567.71 2.336M48.568 19.46h-3.966c.583-1.428 1.886-2.655 2.876-3.43h1.07a24.589 24.589 0 0 0 .02 3.43M48.768 21.227h-4.364l-.078-.74c.045-.35.14-.694.276-1.026h3.966c.045.594.112 1.184.2 1.766m-.22-5.198h-1.07c.507-.397.931-.675 1.135-.801a23.75 23.75 0 0 0-.065.801"/>
        <path fill="#EC9336" d="M46.394 43.314l-.063-.876a6.11 6.11 0 0 0 1.148-.353c1.697-.706 2.721-2.496 2.491-4.351l-.834-6.747c-.257-2.076-1.978-3.65-3.998-3.661h-.096l-.092-.874.148-.002c1.662 0 3.233.573 4.562 1.659l1.432 11.57.063.49c-1.187 1.671-2.895 2.788-4.761 3.145"/>
        <path fill="#0A0B09" d="M46.48 45.092a29.925 29.925 0 0 0-.086-1.778c1.866-.357 3.574-1.474 4.76-3.145l-.062-.49-1.432-11.57c-1.329-1.086-2.9-1.659-4.562-1.659l-.148.002-.184-1.761a8.88 8.88 0 0 1 4.608 1.105 9.4 9.4 0 0 1 .671.405c.204.689.39 1.384.526 2.128.504 2.77.995 5.533 1.43 8.309.166 1.616.287 3.234.37 4.855-.275.36-.572.698-.888 1.011-1.39 1.38-3.136 2.287-5.003 2.588"/>
        <path fill="#EC9336" d="M46.259 40.64c.003-.372.021-.73.064-1.072l-1.096-10.473c1.095.06 2.013.948 2.157 2.11l.834 6.746c.133 1.07-.45 2.1-1.417 2.503a4.436 4.436 0 0 1-.542.186"/>
        <path fill="#0A0B09" d="M46.33 42.438a23.84 23.84 0 0 1-.071-1.798c.183-.05.364-.112.542-.186.966-.403 1.55-1.432 1.417-2.503l-.834-6.747c-.144-1.161-1.062-2.05-2.157-2.109l-.185-1.77h.096c2.02.013 3.741 1.586 3.998 3.662l.834 6.747c.23 1.855-.794 3.645-2.491 4.351a6.11 6.11 0 0 1-1.148.353"/>
        <path fill="#EC9336" d="M51.973 63.348H41.394v-1.007h10.633c-.018.336-.035.672-.054 1.007"/>
        <path fill="#0A0B09" d="M52.027 62.341H41.394v-1.766h10.728l-.095 1.766"/>
        <path fill="#EC9336" d="M51.345 88.308h-9.95V65.115h10.482a455.03 455.03 0 0 0-.375 7.898 274.63 274.63 0 0 0-.157 15.295"/>
        <path fill="#0A0B09" d="M51.385 90.075h-9.99v-1.767h9.95c.012.589.025 1.178.04 1.767m.492-24.96H41.394v-1.767h10.579l-.096 1.767"/>
        <path fill="#0A0B09" d="M52.165 43.467l.75-.926c.05-.062.097-.132.144-.197 2.05-2.719 2.652-7.552 3.074-10.893L58.882 9.23c.433-3.42 1.5-6.22 2.371-6.22h5.76c.872 0 1.94 2.8 2.371 6.22l2.75 22.221c.407 3.234.984 7.868 2.879 10.628.109.16.22.316.34.462l.75.926c2.17 2.679 3.945 7.69 3.945 11.138v52.604c0 3.448-2.82 6.268-6.265 6.268h-19.3c-3.445 0-6.265-2.82-6.265-6.268V54.605c0-3.447 1.776-8.46 3.947-11.138"/>
        <path fill="#0A0B09" d="M61.389 3.894c-.394.384-1.23 2.282-1.63 5.447l-2.75 22.218c-.45 3.577-1.061 8.42-3.245 11.317l-.036.05-.123.166-.754.931c-2.033 2.508-3.75 7.355-3.75 10.582v52.604a5.39 5.39 0 0 0 5.382 5.385h19.3a5.39 5.39 0 0 0 5.382-5.385V54.605c0-3.227-1.716-8.073-3.748-10.583l-.75-.924a7.863 7.863 0 0 1-.382-.52c-2.01-2.924-2.595-7.58-3.022-10.98l-2.754-22.26c-.4-3.163-1.237-5.06-1.631-5.444h-5.49zM73.783 114.36h-19.3c-3.941 0-7.148-3.208-7.148-7.15V54.604c0-3.628 1.86-8.875 4.145-11.695l.685.557-.685-.557.868-1.09c1.907-2.528 2.507-7.291 2.904-10.443l2.754-22.256c.148-1.17 1-6.994 3.247-6.994h5.76c2.251 0 3.1 5.824 3.248 6.992l2.75 22.224c.386 3.072.963 7.663 2.73 10.235.095.14.193.278.297.406l.75.926c2.285 2.821 4.143 8.067 4.143 11.695v52.604c0 3.943-3.206 7.151-7.148 7.151z"/>
        <path fill="#0A0B09" d="M70.181 7.333c0 .956-.772 1.73-1.727 1.73h-8.642a1.727 1.727 0 0 1-1.728-1.73c0-.519.234-.98.595-1.296a1.72 1.72 0 0 1-.595-1.298c0-.955.772-1.73 1.728-1.73h8.642c.955 0 1.727.775 1.727 1.73 0 .52-.232.98-.595 1.298.363.315.595.777.595 1.296"/>
        <path fill="#0A0B09" d="M59.812 3.894a.838.838 0 1 0-.55 1.478.883.883 0 0 1-.002 1.33.835.835 0 0 0-.293.631c0 .466.38.847.845.847h8.642c.466 0 .845-.38.845-.847a.828.828 0 0 0-.293-.63.885.885 0 0 1 0-1.331.839.839 0 0 0 .293-.633.846.846 0 0 0-.845-.845h-8.642zm8.642 6.052h-8.642a2.615 2.615 0 0 1-2.61-2.613c0-.459.122-.905.35-1.297a2.589 2.589 0 0 1-.35-1.297 2.614 2.614 0 0 1 2.61-2.612h8.642c1.44 0 2.61 1.171 2.61 2.612 0 .458-.123.905-.349 1.297.226.392.35.838.35 1.297a2.615 2.615 0 0 1-2.61 2.613z"/>
        <path fill="#FFFFFE" d="M64.133 36.985c-3.351 0-6.31-1.81-8.122-4.577.043-.328.084-.65.122-.957l1.716-13.87c1.717-1.52 3.902-2.435 6.284-2.435 2.382 0 4.568.915 6.285 2.436l1.716 13.87.122.956c-1.813 2.767-4.772 4.577-8.123 4.577"/>
        <path fill="#0A0B09" d="M56.929 32.189c1.723 2.456 4.394 3.913 7.204 3.913 2.811 0 5.482-1.457 7.205-3.914l-.08-.627-1.674-13.53c-1.585-1.31-3.463-2.002-5.45-2.002-1.99 0-3.867.691-5.45 2.001L56.928 32.19zm7.204 5.679c-3.507 0-6.819-1.86-8.86-4.975a.884.884 0 0 1-.138-.597l.122-.954 1.716-13.869a.879.879 0 0 1 .291-.552c1.933-1.714 4.373-2.658 6.87-2.658 2.494 0 4.934.944 6.869 2.657.162.143.265.34.291.553l1.837 14.821a.886.886 0 0 1-.137.598c-2.04 3.116-5.353 4.976-8.86 4.976z"/>
        <path fill="#ECC436" d="M64.133 33.909c.827 0 1.63-.164 2.379-.476 1.569-.654 2.484-2.304 2.275-3.992l-.971-7.857c-.23-1.862-1.771-3.35-3.645-3.362h-.074c-1.875.011-3.415 1.5-3.646 3.362l-.971 7.858c-.21 1.687.706 3.338 2.276 3.991.749.312 1.55.476 2.377.476"/>
        <path fill="#0A0B09" d="M64.097 18.222l.004.884c-1.399.008-2.591 1.12-2.773 2.587l-.972 7.856c-.163 1.313.553 2.575 1.739 3.068 1.3.542 2.776.543 4.078 0 1.186-.494 1.9-1.756 1.739-3.068l-.973-7.856c-.182-1.467-1.374-2.58-2.773-2.587l-.07-.884zm.035 16.57a7.03 7.03 0 0 1-2.716-.543c-1.916-.798-3.073-2.82-2.812-4.916l.972-7.857c.29-2.345 2.231-4.123 4.516-4.137h.083c2.285.014 4.227 1.792 4.516 4.137l.973 7.857c.26 2.095-.897 4.117-2.812 4.916a7.053 7.053 0 0 1-2.72.544z"/>
        <path fill="#FFFFFE" d="M48.218 92.47h31.83V56.942h-31.83z"/>
        <path fill="#0A0B09" d="M49.101 91.586h30.064v-33.76H49.101v33.76zm30.947 1.766h-31.83a.883.883 0 0 1-.883-.883V56.943c0-.488.396-.884.883-.884h31.83c.488 0 .883.396.883.884v35.526a.883.883 0 0 1-.883.883z"/>
        <path fill="#ECC436" d="M55.735 89.24h16.797a4.41 4.41 0 0 0 4.409-4.412V64.584a4.41 4.41 0 0 0-4.41-4.412H55.736a4.41 4.41 0 0 0-4.41 4.412v20.244a4.41 4.41 0 0 0 4.41 4.411"/>
        <path fill="#0A0B09" d="M55.294 61.055a3.09 3.09 0 0 0-3.086 3.088v21.125a3.09 3.09 0 0 0 3.086 3.088h17.678a3.09 3.09 0 0 0 3.086-3.088V64.143a3.09 3.09 0 0 0-3.086-3.088H55.294zm17.678 29.068H55.294a4.858 4.858 0 0 1-4.852-4.855V64.143a4.858 4.858 0 0 1 4.852-4.854h17.678a4.858 4.858 0 0 1 4.852 4.854v21.125a4.858 4.858 0 0 1-4.852 4.855z"/>
        <path fill="#FFFFFE" d="M108.47 57.311V52.16H76.52v10.787h31.95v-5.635"/>
        <path fill="#ECC436" d="M108.469 93.962l.001-.918V62.946H76.52v30.098l.002.918c.009 2.99.016 6.25-.64 9.05.167.744.618 1.443 1.643 1.76 2.685.83 13.819 2.695 21.155 1.451l.047-.007c7.19-1.218 10.265-1.402 10.233-3.899-.507-2.635-.499-5.61-.491-8.355"/>
        <path fill="#FFFFFE" d="M114.957 89.705a2.38 2.38 0 0 1-.993.35c-1.472.164-2.646-1.184-2.646-1.184v-22.2c.32-.557.972-1.149 2.219-1.663l.146-.052c3.588-1.333 6.978 2.85 7.758 12.172.79 9.448-4.587 11.41-6.484 12.577M98.68 106.223c-7.336 1.244-18.47-.622-21.155-1.45-1.025-.318-1.476-1.016-1.644-1.76.657-2.8.65-6.061.641-9.05l-.002-.92V52.16h31.95v40.885l-.001.918c-.008 2.745-.016 5.72.491 8.355.032 2.503-3.056 2.681-10.28 3.906m26.241-41.715c-2.582-5.448-6.744-6.45-9.647-6.633-.653-.042-1.243-.042-1.737-.042-1.655 0-2.11-1.583-2.22-2.8v-4.375c0-.827-.64-1.502-1.423-1.502H75.097c-.783 0-1.424.675-1.424 1.502v42.386c0 4.004.159 9.177-1.58 11.847-1.741 2.67-.279 4.52-.279 4.52.501.635 1.465 1.495 2.141 1.912 0 0 4.455 2.745 18.496 2.745h.045c12.812-.005 18.486-2.857 18.486-2.857.705-.355 1.694-1.165 2.196-1.8 0 0 1.461-1.85-.278-4.52-.485-.744-.818-1.686-1.053-2.738-.57-3.308 2.11-3.738 7.307-6.68a51.419 51.419 0 0 0 3.395-2.096c7.434-5.007 5.535-22.194 2.372-28.869"/>
        <path fill="#0A0B09" d="M112.2 88.502c.364.317 1.008.748 1.666.675.218-.025.423-.098.627-.223l.001-.001c.19-.117.412-.242.66-.38 2.123-1.184 6.075-3.389 5.407-11.372-.471-5.639-2.02-9.81-4.14-11.158-.776-.494-1.572-.578-2.431-.259l-.074.026c-.825.338-1.402.721-1.716 1.127v21.565m1.516 2.45c-1.735 0-3.007-1.436-3.063-1.5a.885.885 0 0 1-.218-.581v-22.2c0-.155.041-.307.119-.441.473-.824 1.364-1.51 2.647-2.038l.138-.051c1.41-.525 2.79-.376 4.03.411 2.66 1.691 4.42 6.131 4.951 12.502.764 9.118-4.011 11.783-6.306 13.062-.223.125-.424.236-.594.34a3.251 3.251 0 0 1-1.704.496m-36.924 12.043c.153.48.466.77.993.933 2.492.77 13.469 2.658 20.747 1.424.836-.142 1.617-.27 2.344-.388 5.275-.864 7.156-1.24 7.2-2.566-.506-2.699-.497-5.747-.49-8.439l.002-.915V53.042H77.404l.001 40.906c.009 2.91.019 6.187-.613 9.047m16.221 4.523c-6.633 0-13.769-1.29-15.748-1.901-1.198-.37-1.974-1.204-2.244-2.411a.88.88 0 0 1 .001-.396c.636-2.71.626-5.969.617-8.846l-.001-.92V52.159c0-.488.395-.883.883-.883h31.95c.487 0 .883.395.883.883l-.002 41.792c-.008 2.783-.016 5.648.475 8.2l.016.155c.038 2.974-2.876 3.452-8.682 4.401-.724.12-1.501.246-2.333.387-1.78.302-3.774.424-5.815.424M75.097 50.04c-.293 0-.541.284-.541.619l.002 43.313c.012 4.085.026 8.714-1.726 11.402-1.348 2.069-.36 3.443-.318 3.5.426.54 1.32 1.337 1.904 1.698.038.023 4.532 2.614 18.032 2.614 12.44-.005 18.082-2.736 18.138-2.764.589-.297 1.476-1.025 1.898-1.558.035-.047 1.022-1.421-.326-3.49-.512-.785-.896-1.775-1.175-3.029-.568-3.293 1.58-4.404 4.832-6.086.856-.444 1.826-.946 2.903-1.555a50.084 50.084 0 0 0 3.336-2.06c6.665-4.488 5.31-20.915 2.068-27.756-2.439-5.144-6.25-5.962-8.906-6.13-.635-.04-1.215-.04-1.681-.04-1.765 0-2.894-1.314-3.099-3.605l-.003-.078v-4.376c0-.335-.248-.619-.54-.619H75.096m17.399 64.913c-14.173 0-18.814-2.76-19.004-2.877-.765-.472-1.806-1.401-2.37-2.117-.077-.095-1.832-2.383.23-5.55 1.464-2.246 1.45-6.785 1.44-10.432l-.001-.932V50.658c0-1.315 1.035-2.385 2.306-2.385h34.797c1.272 0 2.306 1.07 2.306 2.385v4.335c.186 1.956 1.051 1.956 1.337 1.956.49 0 1.102 0 1.793.045 4.86.306 8.259 2.641 10.39 7.136 3.474 7.335 5.136 24.716-2.678 29.98a51.51 51.51 0 0 1-3.454 2.13c-1.104.627-2.09 1.137-2.96 1.587-3.37 1.743-4.238 2.278-3.91 4.175.22.987.532 1.81.921 2.406 2.063 3.167.308 5.455.232 5.55-.579.733-1.674 1.63-2.492 2.043-.24.12-6.01 2.945-18.883 2.95"/>
        <path fill="#FFFFFE" d="M111.595 42.552c-.765 0-1.493.158-2.155.44a7.439 7.439 0 0 0-3.139-5.943 7.418 7.418 0 0 0-9.614.857c-1.318-4.064-5.128-7.004-9.628-7.004-5.335 0-9.696 4.13-10.088 9.367a7.266 7.266 0 0 0-4.267-1.382 7.316 7.316 0 0 0-7.313 7.318 7.316 7.316 0 0 0 7.313 7.319h38.891a5.485 5.485 0 0 0 5.484-5.486 5.485 5.485 0 0 0-5.484-5.486"/>
        <path fill="#0A0B09" d="M72.705 39.77c-3.547 0-6.432 2.887-6.432 6.435a6.44 6.44 0 0 0 6.432 6.435h38.89a4.607 4.607 0 0 0 4.601-4.602 4.607 4.607 0 0 0-6.409-4.234.883.883 0 0 1-1.23-.797 6.594 6.594 0 0 0-2.768-5.239A6.5 6.5 0 0 0 102 36.554c-1.773 0-3.437.7-4.683 1.97a.884.884 0 0 1-1.47-.347 9.22 9.22 0 0 0-8.788-6.391c-4.805 0-8.848 3.755-9.208 8.549a.882.882 0 0 1-1.396.65 6.382 6.382 0 0 0-3.75-1.215m38.89 14.637h-38.89c-4.52 0-8.197-3.68-8.197-8.202s3.677-8.201 8.197-8.201c1.251 0 2.466.282 3.576.825 1.03-5.038 5.523-8.81 10.778-8.81 4.345 0 8.213 2.524 9.994 6.398a8.25 8.25 0 0 1 4.947-1.63c1.732 0 3.396.533 4.814 1.543a8.385 8.385 0 0 1 3.407 5.488 6.375 6.375 0 0 1 7.74 6.22 6.375 6.375 0 0 1-6.366 6.369"/>
        <path fill="#EC9336" d="M107.588 62.946h-6.527a96.148 96.148 0 0 0-.904-7.565 1.7 1.7 0 0 1 .087-.974h7.344v8.54"/>
        <path fill="#E08029" d="M99.784 105.143c.731-14.066 2.413-28.13 1.277-42.197h6.527v30.098l-.002.915c-.007 2.692-.016 5.74.49 8.439-.044 1.326-1.925 1.702-7.2 2.566l-1.092.179"/>
        <path fill="#0A0B09" d="M99.738 106.047c.014-.301.03-.603.046-.904l1.092-.18c5.275-.863 7.156-1.239 7.2-2.565-.506-2.699-.497-5.747-.49-8.439l.002-.915V54.407h.882v38.637l-.001.918c-.008 2.745-.016 5.72.491 8.355.031 2.376-2.76 2.66-9.222 3.73"/>
        <path fill="#E08029" d="M111.595 52.64h-9.757c1.357-1.036 3.208-2.099 4.359-3.639.635-.852.445-2.025-.377-2.699l-.028-.023c-1.363-1.15-1.697-3.128-.91-4.729.573-1.166 1.161-2.314 1.277-3.5a6.594 6.594 0 0 1 2.398 4.957.883.883 0 0 0 1.23.797 4.607 4.607 0 0 1 6.41 4.233 4.607 4.607 0 0 1-4.602 4.603"/>
        <path fill="#0A0B09" d="M108.47 54.407h-8.226c.246-.631.845-1.195 1.594-1.767h9.757a4.607 4.607 0 0 0 4.601-4.602 4.607 4.607 0 0 0-6.409-4.234.87.87 0 0 1-.827-.07.883.883 0 0 1-.403-.727 6.594 6.594 0 0 0-2.398-4.956 3.96 3.96 0 0 0-.047-1.126l.005-.004a7.444 7.444 0 0 1 3.323 6.072 5.453 5.453 0 0 1 2.151-.442c2.922 0 5.41 2.41 5.486 5.341a5.485 5.485 0 0 1-5.482 5.632h-3.125v.883"/>
        <path fill="#FFFFFE" d="M158.834 133.412H4.018l7.872-11.175-7.872-11.173h154.816l-7.872 11.173 7.872 11.175"/>
        <path fill="#0A0B09" d="M2.51 132.72h149.795l-6.818-9.602a.806.806 0 0 1 0-.956l6.818-9.602H2.511l6.818 9.602c.21.294.21.663 0 .956l-6.818 9.602zm152.901 1.68H1.078c-.39 0-.749-.183-.94-.479a.836.836 0 0 1 .02-.949l7.505-10.751-7.506-10.753a.837.837 0 0 1-.019-.95c.191-.295.55-.478.94-.478h154.333c.39 0 .749.183.94.479.19.296.184.66-.019.95l-7.506 10.752 7.506 10.751c.203.29.21.653.019.95-.191.295-.55.478-.94.478z"/>
        <text fill="#57AE23" font-family="LucidaGrande, Lucida Grande" font-size="16">
            <tspan x="22.411" y="127.72">BEERS&amp;EVENTS</tspan>
        </text>
        <text fill="#0A0B09" font-family="LucidaGrande, Lucida Grande" font-size="16">
            <tspan x="22.411" y="128.273">BEERS&amp;EVENTS</tspan>
        </text>
    </g>
</svg>
