<svg height="454pt" viewBox="-29 0 454 454.61839" width="454pt" xmlns="http://www.w3.org/2000/svg"><path d="m139.5625 69.890625c.707031 2.171875 2.582031 3.757813 4.84375 4.085937l33.34375 4.84375 14.910156 30.214844c1.011719 2.050782 3.097656 3.347656 5.382813 3.347656 2.28125 0 4.367187-1.296874 5.378906-3.347656l14.910156-30.214844 33.34375-4.847656c2.261719-.328125 4.140625-1.910156 4.84375-4.082031.707031-2.171875.117188-4.558594-1.515625-6.152344l-24.128906-23.519531 5.695312-33.199219c.386719-2.253906-.539062-4.527343-2.386718-5.871093-1.847656-1.339844-4.296875-1.519532-6.320313-.453126l-29.820312 15.671876-29.824219-15.679688c-2.023438-1.0625-4.472656-.882812-6.320312.457031-1.847657 1.34375-2.773438 3.617188-2.386719 5.871094l5.695312 33.203125-24.128906 23.523438c-1.632813 1.59375-2.222656 3.976562-1.515625 6.148437zm36.277344-23.273437c1.414062-1.378907 2.058594-3.363282 1.726562-5.308594l-4.171875-24.339844 21.855469 11.488281c1.746094.921875 3.835938.921875 5.582031 0l21.855469-11.488281-4.171875 24.335938c-.335937 1.945312.308594 3.933593 1.726563 5.3125l17.679687 17.230468-24.4375 3.550782c-1.953125.285156-3.640625 1.511718-4.515625 3.28125l-10.925781 22.140624-10.929688-22.144531c-.875-1.769531-2.5625-2.996093-4.515625-3.28125l-24.4375-3.546875zm0 0"/><path d="m.601562 123.285156c.707032 2.171875 2.585938 3.753906 4.84375 4.082032l33.34375 4.851562 14.914063 30.210938c1.007813 2.046874 3.09375 3.34375 5.378906 3.34375 2.285157 0 4.371094-1.296876 5.382813-3.34375l14.910156-30.210938 33.34375-4.847656c2.261719-.328125 4.140625-1.910156 4.84375-4.085938.707031-2.171875.117188-4.558594-1.519531-6.152344l-24.125-23.515624 5.691406-33.207032c.386719-2.25-.539063-4.527344-2.386719-5.867187-1.847656-1.34375-4.296875-1.519531-6.316406-.457031l-29.824219 15.679687-29.824219-15.683594c-2.019531-1.0625-4.472656-.886719-6.320312.457031s-2.769531 3.617188-2.386719 5.867188l5.699219 33.210938-24.128906 23.515624c-1.636719 1.597657-2.222656 3.980469-1.519532 6.152344zm36.28125-23.277344c1.414063-1.378906 2.058594-3.367187 1.726563-5.3125l-4.175781-24.335937 21.855468 11.488281c1.75.921875 3.835938.921875 5.585938 0l21.855469-11.488281-4.175781 24.335937c-.332032 1.945313.3125 3.933594 1.726562 5.3125l17.679688 17.234376-24.433594 3.550781c-1.953125.285156-3.644532 1.511719-4.519532 3.28125l-10.925781 22.144531-10.925781-22.140625c-.875-1.773437-2.566406-3-4.519531-3.28125l-24.433594-3.550781zm0 0"/><path d="m390.640625 127.367188c2.261719-.328126 4.136719-1.910157 4.84375-4.082032s.117187-4.554687-1.515625-6.152344l-24.132812-23.515624 5.699218-33.207032c.386719-2.25-.539062-4.527344-2.386718-5.867187-1.847657-1.34375-4.296876-1.519531-6.320313-.457031l-29.824219 15.679687-29.828125-15.683594c-2.019531-1.0625-4.46875-.886719-6.316406.457031s-2.773437 3.617188-2.386719 5.867188l5.695313 33.210938-24.125 23.515624c-1.636719 1.59375-2.226563 3.980469-1.519531 6.152344.707031 2.171875 2.582031 3.753906 4.84375 4.082032l33.34375 4.847656 14.910156 30.214844c1.011718 2.046874 3.097656 3.34375 5.382812 3.34375 2.28125 0 4.367188-1.296876 5.378906-3.34375l14.910157-30.210938zm-42.707031-3.292969-10.933594 22.144531-10.925781-22.140625c-.875-1.769531-2.5625-3-4.519531-3.28125l-24.433594-3.550781 17.679687-17.234375c1.414063-1.378907 2.058594-3.367188 1.726563-5.3125l-4.175782-24.335938 21.855469 11.488281c1.75.921876 3.835938.921876 5.585938 0l21.855469-11.488281-4.175782 24.335938c-.332031 1.945312.3125 3.933593 1.726563 5.3125l17.679687 17.234375-24.4375 3.546875c-1.953125.285156-3.640625 1.511719-4.515625 3.28125zm0 0"/><path d="m192.058594 453.445312c.101562.039063.210937.078126.320312.113282 3.636719 1.414062 7.671875 1.414062 11.3125 0 .121094-.039063.242188-.085938.359375-.132813 119.878907-48.566406 160.558594-137.164062 147.699219-203.421875 0-.015625 0-.03125-.007812-.042968-9.257813-45.882813-42.425782-75.53125-84.496094-75.53125-22.027344 0-45.863282 8.480468-69.15625 24.566406-23.613282-16.796875-47.023438-25.316406-69.636719-25.316406-42.3125 0-75.335937 29.96875-84.132813 76.335937-12.851562 66.980469 27.847657 155.855469 147.738282 203.429687zm-135.953125-201.179687c3.820312-20.125 12.65625-36.996094 25.566406-48.785156 12.746094-11.644531 28.921875-17.800781 46.777344-17.800781 21.097656 0 43.300781 8.585937 66 25.515624 2.105469 1.570313 4.988281 1.589844 7.113281.046876 22.359375-16.230469 45.074219-24.808594 65.683594-24.808594 17.292968-.199219 34.023437 6.132812 46.851562 17.730468 12.925782 11.675782 21.871094 28.324219 25.875 48.148438 16.527344 85.179688-58.492187 156.734375-140.234375 189.914062-.546875.1875-1.113281.320313-1.683593.394532-.59375-.074219-1.175782-.207032-1.738282-.402344-113.390625-45.054688-152.125-127.847656-140.210937-189.953125zm0 0"/><path d="m123.847656 377.789062c1.5 1.492188 2.988282 2.972657 4.417969 4.441407 1.488281 1.5625 3.699219 2.203125 5.789063 1.683593 2.09375-.519531 3.746093-2.125 4.328124-4.199218.585938-2.078125.007813-4.304688-1.507812-5.839844-1.480469-1.523438-3.019531-3.054688-4.570312-4.601562-3.691407-3.511719-7.167969-7.238282-10.417969-11.164063-1.3125-1.710937-3.441407-2.589844-5.578125-2.296875-2.140625.296875-3.953125 1.714844-4.753906 3.71875-.800782 2.003906-.464844 4.28125.878906 5.96875 3.550781 4.328125 7.359375 8.429688 11.414062 12.289062zm0 0"/><path d="m108.746094 337.441406c-.183594-.21875-18.363282-22.148437-20.6875-51.433594-.261719-3.300781-3.152344-5.765624-6.457032-5.503906-3.300781.261719-5.765624 3.152344-5.503906 6.453125 2.636719 33.246094 22.632813 57.222657 23.484375 58.226563 2.148438 2.492187 5.902344 2.789062 8.414063.664062 2.511718-2.121094 2.847656-5.871094.75-8.40625zm0 0"/></svg>