<svg xmlns="http://www.w3.org/2000/svg" width="12" height="30" viewBox="0 0 12 30">
    <path fill="#D6D6D6" fill-rule="nonzero" d="M7.766 7.648C7.59 7.17 7.443 4.972 7.4 2.503c0-.01.01-.035.048-.035.196-.011.304-.167.304-.365V.373A.375.375 0 0 0 7.377 0H3.743a.375.375 0 0 0-.374.374v1.729c0 .198.099.352.294.363.063 0 .058.045.057.063-.043 2.493-.19 4.642-.366 5.119C2.314 10.45 0 10.208 0 13.573v12.03C0 30.234 2.329 30 5.56 29.98c3.23.021 5.56.254 5.56-4.375V13.572c0-3.364-2.315-3.121-3.354-5.924zm1.205 11.958c-.547.83-2.898 2.806-3.408 2.806-.498 0-2.871-1.983-3.414-2.806-.271-.412-.464-.867-.432-1.465.056-1.059.922-1.933 1.982-1.933 1.09 0 1.724 1.163 1.861 1.163.157 0 .818-1.163 1.861-1.163 1.06 0 1.926.874 1.982 1.933.032.598-.16 1.05-.432 1.465z"/>
</svg>
